<?xml version="1.0" encoding="utf-8"?>
<!-- Generator: Adobe Illustrator 23.0.4, SVG Export Plug-In . SVG Version: 6.00 Build 0)  -->
<svg version="1.1" id="Layer_1" xmlns="http://www.w3.org/2000/svg" xmlns:xlink="http://www.w3.org/1999/xlink" x="0px" y="0px"
	 viewBox="0 0 167.14 42.7" style="enable-background:new 0 0 167.14 42.7;" xml:space="preserve">
<style type="text/css">
	.st0{fill:url(#SVGID_1_);stroke:#3B444D;stroke-width:0.25;stroke-miterlimit:10;}
	.st1{fill:#3B444D;}
	.st2{fill:url(#SVGID_2_);stroke:#3B444D;stroke-width:0.25;stroke-miterlimit:10;}
	.st3{fill:url(#SVGID_3_);stroke:#3B444D;stroke-width:0.25;stroke-miterlimit:10;}
	.st4{fill:url(#SVGID_4_);stroke:#3B444D;stroke-width:0.25;stroke-miterlimit:10;}
	.st5{fill:url(#SVGID_5_);stroke:#3B444D;stroke-width:0.25;stroke-miterlimit:10;}
	.st6{fill:url(#SVGID_6_);stroke:#3B444D;stroke-width:0.25;stroke-miterlimit:10;}
</style>
<linearGradient id="SVGID_1_" gradientUnits="userSpaceOnUse" x1="34.4872" y1="4.2001" x2="47.3485" y2="17.0614">
	<stop  offset="0" style="stop-color:#FCCB83"/>
	<stop  offset="1" style="stop-color:#FCA92D"/>
</linearGradient>
<polygon class="st0" points="40.92,14.8 35.22,17.79 36.32,11.46 31.71,6.98 38.08,6.05 40.92,0.28 43.76,6.05 50.13,6.98 
	45.51,11.46 46.62,17.79 "/>
<g>
	<path class="st1" d="M0.75,34.8l1.75-2.43C3.19,33.1,4.02,33.7,5,34.17c0.98,0.47,2.05,0.7,3.22,0.7c1.2,0,2.11-0.25,2.71-0.74
		c0.6-0.49,0.9-1.07,0.9-1.74c0-0.41-0.12-0.76-0.36-1.06c-0.24-0.3-0.56-0.55-0.97-0.74c-0.4-0.19-0.87-0.36-1.39-0.5
		c-0.52-0.14-1.07-0.3-1.65-0.46c-0.58-0.16-1.16-0.32-1.74-0.48c-0.59-0.16-1.14-0.38-1.67-0.65c-0.52-0.27-0.99-0.58-1.39-0.94
		s-0.73-0.81-0.97-1.37s-0.36-1.19-0.36-1.9c0-1.5,0.61-2.75,1.83-3.75c1.22-1,2.8-1.5,4.74-1.5c2.79,0,5.04,0.83,6.77,2.49
		l-1.82,2.35c-0.68-0.68-1.47-1.19-2.38-1.54C9.54,22,8.6,21.83,7.62,21.83c-0.92,0-1.66,0.21-2.22,0.62s-0.84,0.96-0.84,1.64
		c0,0.35,0.12,0.67,0.35,0.94c0.24,0.27,0.56,0.49,0.96,0.66c0.4,0.17,0.87,0.33,1.39,0.48s1.08,0.3,1.66,0.47
		c0.58,0.16,1.16,0.33,1.74,0.49c0.58,0.16,1.14,0.39,1.67,0.67s1,0.61,1.41,0.98c0.41,0.37,0.73,0.84,0.97,1.4s0.36,1.21,0.36,1.93
		c0,0.76-0.14,1.47-0.42,2.13s-0.69,1.24-1.24,1.76c-0.55,0.52-1.28,0.92-2.2,1.22c-0.91,0.29-1.96,0.44-3.14,0.44
		C4.98,37.65,2.54,36.7,0.75,34.8z"/>
	<path class="st1" d="M17.94,37.32V19.31h12.34v2.78h-9.18v4.67h8.99v2.78h-8.99v5h9.18v2.78H17.94z"/>
	<path class="st1" d="M31.63,19.31h3.59l5.46,14.58l5.46-14.58h3.59l-7.07,18.01h-3.94L31.63,19.31z"/>
	<path class="st1" d="M51.68,37.32V19.31h12.34v2.78h-9.18v4.67h8.99v2.78h-8.99v5h9.18v2.78H51.68z"/>
	<path class="st1" d="M67.25,37.32V19.31h3.24l9.22,12.5v-12.5h3.16v18.01h-3.06l-9.4-12.85v12.85H67.25z"/>
</g>
<g>
	<linearGradient id="SVGID_2_" gradientUnits="userSpaceOnUse" x1="87.9946" y1="28.3482" x2="102.312" y2="28.3482">
		<stop  offset="0" style="stop-color:#FCCB83"/>
		<stop  offset="1" style="stop-color:#FCA92D"/>
	</linearGradient>
	<path class="st2" d="M87.99,34.8l1.75-2.43c0.69,0.73,1.52,1.33,2.49,1.8c0.98,0.47,2.05,0.7,3.22,0.7c1.2,0,2.11-0.25,2.71-0.74
		c0.6-0.49,0.9-1.07,0.9-1.74c0-0.41-0.12-0.76-0.36-1.06c-0.24-0.3-0.56-0.55-0.97-0.74c-0.4-0.19-0.87-0.36-1.39-0.5
		c-0.52-0.14-1.07-0.3-1.65-0.46s-1.16-0.32-1.74-0.48c-0.59-0.16-1.14-0.38-1.67-0.65c-0.52-0.27-0.99-0.58-1.39-0.94
		s-0.73-0.81-0.97-1.37c-0.24-0.55-0.36-1.19-0.36-1.9c0-1.5,0.61-2.75,1.83-3.75c1.22-1,2.8-1.5,4.74-1.5
		c2.79,0,5.04,0.83,6.77,2.49l-1.82,2.35c-0.68-0.68-1.47-1.19-2.38-1.54c-0.91-0.35-1.85-0.52-2.83-0.52
		c-0.92,0-1.66,0.21-2.22,0.62c-0.56,0.41-0.84,0.96-0.84,1.64c0,0.35,0.12,0.67,0.35,0.94c0.24,0.27,0.56,0.49,0.96,0.66
		c0.4,0.17,0.87,0.33,1.39,0.48s1.08,0.3,1.66,0.47c0.58,0.16,1.16,0.33,1.74,0.49c0.58,0.16,1.14,0.39,1.67,0.67s1,0.61,1.41,0.98
		s0.73,0.84,0.97,1.4s0.36,1.21,0.36,1.93c0,0.76-0.14,1.47-0.42,2.13c-0.28,0.66-0.69,1.24-1.24,1.76s-1.28,0.92-2.2,1.22
		c-0.91,0.29-1.96,0.44-3.14,0.44C92.23,37.65,89.79,36.7,87.99,34.8z"/>
	<linearGradient id="SVGID_3_" gradientUnits="userSpaceOnUse" x1="103.7622" y1="28.315" x2="117.8286" y2="28.315">
		<stop  offset="0" style="stop-color:#FCCB83"/>
		<stop  offset="1" style="stop-color:#FCA92D"/>
	</linearGradient>
	<path class="st3" d="M103.76,22.09v-2.78h14.07v2.78h-5.44v15.23h-3.16V22.09H103.76z"/>
	<linearGradient id="SVGID_4_" gradientUnits="userSpaceOnUse" x1="116.853" y1="28.315" x2="134.9409" y2="28.315">
		<stop  offset="0" style="stop-color:#FCCB83"/>
		<stop  offset="1" style="stop-color:#FCA92D"/>
	</linearGradient>
	<path class="st4" d="M116.85,37.32l7.08-18.01h3.94l7.07,18.01h-3.59l-1.33-3.45h-8.25l-1.33,3.45H116.85z M122.65,31.08h6.49
		l-3.24-8.58L122.65,31.08z"/>
	<linearGradient id="SVGID_5_" gradientUnits="userSpaceOnUse" x1="136.9058" y1="28.315" x2="150.8403" y2="28.315">
		<stop  offset="0" style="stop-color:#FCCB83"/>
		<stop  offset="1" style="stop-color:#FCA92D"/>
	</linearGradient>
	<path class="st5" d="M136.91,37.32V19.31h7.91c1.77,0,3.19,0.52,4.27,1.57s1.62,2.4,1.62,4.07c0,0.77-0.12,1.48-0.36,2.12
		c-0.24,0.64-0.56,1.18-0.97,1.6c-0.41,0.43-0.86,0.77-1.36,1.03c-0.5,0.26-1.03,0.44-1.59,0.53l4.4,7.08h-3.64l-3.99-6.72h-3.14
		v6.72H136.91z M140.07,27.81h4.32c0.9,0,1.63-0.26,2.21-0.79c0.58-0.53,0.86-1.22,0.86-2.07s-0.29-1.54-0.86-2.07
		c-0.58-0.53-1.31-0.79-2.21-0.79h-4.32V27.81z"/>
	<linearGradient id="SVGID_6_" gradientUnits="userSpaceOnUse" x1="152.6997" y1="28.3482" x2="167.0171" y2="28.3482">
		<stop  offset="0" style="stop-color:#FCCB83"/>
		<stop  offset="1" style="stop-color:#FCA92D"/>
	</linearGradient>
	<path class="st6" d="M152.7,34.8l1.75-2.43c0.69,0.73,1.52,1.33,2.49,1.8c0.98,0.47,2.05,0.7,3.22,0.7c1.2,0,2.11-0.25,2.71-0.74
		c0.6-0.49,0.9-1.07,0.9-1.74c0-0.41-0.12-0.76-0.36-1.06c-0.24-0.3-0.56-0.55-0.97-0.74c-0.4-0.19-0.87-0.36-1.39-0.5
		c-0.52-0.14-1.07-0.3-1.65-0.46s-1.16-0.32-1.74-0.48c-0.59-0.16-1.14-0.38-1.67-0.65c-0.52-0.27-0.99-0.58-1.39-0.94
		s-0.73-0.81-0.97-1.37c-0.24-0.55-0.36-1.19-0.36-1.9c0-1.5,0.61-2.75,1.83-3.75c1.22-1,2.8-1.5,4.74-1.5
		c2.79,0,5.04,0.83,6.77,2.49l-1.82,2.35c-0.68-0.68-1.47-1.19-2.38-1.54c-0.91-0.35-1.85-0.52-2.83-0.52
		c-0.92,0-1.66,0.21-2.22,0.62c-0.56,0.41-0.84,0.96-0.84,1.64c0,0.35,0.12,0.67,0.35,0.94c0.24,0.27,0.56,0.49,0.96,0.66
		c0.4,0.17,0.87,0.33,1.39,0.48s1.08,0.3,1.66,0.47c0.58,0.16,1.16,0.33,1.74,0.49c0.58,0.16,1.14,0.39,1.67,0.67s1,0.61,1.41,0.98
		s0.73,0.84,0.97,1.4s0.36,1.21,0.36,1.93c0,0.76-0.14,1.47-0.42,2.13c-0.28,0.66-0.69,1.24-1.24,1.76s-1.28,0.92-2.2,1.22
		c-0.91,0.29-1.96,0.44-3.14,0.44C156.93,37.65,154.49,36.7,152.7,34.8z"/>
</g>
<g>
</g>
<g>
</g>
<g>
</g>
<g>
</g>
<g>
</g>
<g>
</g>
<g>
</g>
<g>
</g>
<g>
</g>
<g>
</g>
<g>
</g>
<g>
</g>
<g>
</g>
<g>
</g>
<g>
</g>
</svg>
