<?xml version="1.0" encoding="utf-8"?>
<!-- Generator: Adobe Illustrator 23.0.4, SVG Export Plug-In . SVG Version: 6.00 Build 0)  -->
<svg version="1.1" id="Layer_1" xmlns="http://www.w3.org/2000/svg" xmlns:xlink="http://www.w3.org/1999/xlink" x="0px" y="0px"
	 viewBox="0 0 74.16 23.03" style="enable-background:new 0 0 74.16 23.03;" xml:space="preserve">
<style type="text/css">
	.st0{fill-rule:evenodd;clip-rule:evenodd;fill:#E1001A;}
</style>
<g>
	<path d="M0,22.82V10.81h4.74c3.76,0,6.37,2.39,6.37,6c0,3.64-2.61,6.01-6.36,6.01H0z M8.5,16.8c0-2.11-1.3-3.75-3.75-3.75h-2.2
		v7.51h2.18C7.11,20.57,8.5,18.86,8.5,16.8z"/>
	<path d="M12.92,22.82V10.81h8.5v2.25h-5.94v2.52h5.82v2.25h-5.82v2.74h5.94v2.25H12.92z"/>
	<path d="M33.86,22.82v-8.66l-3.38,8.66h-1.12l-3.39-8.66v8.66h-2.56V10.81H27l2.92,7.51l2.92-7.51h3.6v12.01H33.86z"/>
	<path d="M38.23,16.82c0-3.62,2.65-6.21,6.28-6.21c3.62,0,6.27,2.59,6.27,6.21s-2.65,6.21-6.27,6.21
		C40.88,23.03,38.23,20.44,38.23,16.82z M48.15,16.82c0-2.25-1.42-3.94-3.64-3.94c-2.23,0-3.66,1.69-3.66,3.94
		c0,2.23,1.42,3.94,3.66,3.94C46.73,20.76,48.15,19.05,48.15,16.82z"/>
	<path d="M54.92,22.82v-9.76h-3.51v-2.25h9.58v2.25h-3.49v9.76H54.92z"/>
	<path d="M61.61,16.82c0-3.62,2.65-6.21,6.28-6.21c3.62,0,6.27,2.59,6.27,6.21s-2.65,6.21-6.27,6.21
		C64.26,23.03,61.61,20.44,61.61,16.82z M71.53,16.82c0-2.25-1.42-3.94-3.64-3.94c-2.23,0-3.66,1.69-3.66,3.94
		c0,2.23,1.42,3.94,3.66,3.94C70.11,20.76,71.53,19.05,71.53,16.82z"/>
</g>
<path class="st0" d="M34.58,4.78c-0.55-0.06-0.93-0.11-0.93-0.11c-0.42-0.05-0.75-0.43-0.75-0.86V2.28c0-0.42,0.34-0.81,0.75-0.86
	c0,0,0.38-0.05,0.93-0.11C35.13,0.52,36.04,0,37.08,0c1.04,0,1.96,0.52,2.51,1.31c0.55,0.06,0.93,0.11,0.93,0.11
	c0.42,0.05,0.75,0.43,0.75,0.86v1.52c0,0.42-0.34,0.81-0.75,0.86c0,0-0.38,0.05-0.93,0.11c-0.55,0.79-1.47,1.31-2.51,1.31
	C36.04,6.09,35.13,5.57,34.58,4.78z M37.08,5.33c1.26,0,2.29-1.02,2.29-2.29c0-1.26-1.02-2.29-2.29-2.29
	c-1.26,0-2.29,1.02-2.29,2.29C34.8,4.31,35.82,5.33,37.08,5.33z"/>
<g>
</g>
<g>
</g>
<g>
</g>
<g>
</g>
<g>
</g>
<g>
</g>
<g>
</g>
<g>
</g>
<g>
</g>
<g>
</g>
<g>
</g>
<g>
</g>
<g>
</g>
<g>
</g>
<g>
</g>
</svg>
