<?xml version="1.0" encoding="utf-8"?>
<!-- Generator: Adobe Illustrator 23.0.4, SVG Export Plug-In . SVG Version: 6.00 Build 0)  -->
<svg version="1.1" id="Layer_1" xmlns="http://www.w3.org/2000/svg" xmlns:xlink="http://www.w3.org/1999/xlink" x="0px" y="0px"
	 viewBox="0 0 193.67 36.06" style="enable-background:new 0 0 193.67 36.06;" xml:space="preserve">
<style type="text/css">
	.st0{fill:#FFFFFF;}
	.st1{fill-rule:evenodd;clip-rule:evenodd;fill:#FFFFFF;}
</style>
<g>
	<path class="st0" d="M92.6,13.33h-5.28v-1.9h12.85v1.9h-5.3v15.45H92.6V13.33z"/>
	<path class="st0" d="M100.86,20.2c0-1.47-0.03-2.73-0.1-3.89h1.98l0.08,2.45h0.1c0.57-1.67,1.93-2.73,3.45-2.73
		c0.26,0,0.44,0.03,0.64,0.08v2.14c-0.23-0.05-0.46-0.08-0.77-0.08c-1.6,0-2.73,1.21-3.04,2.91c-0.05,0.31-0.1,0.67-0.1,1.06v6.64
		h-2.24V20.2z"/>
	<path class="st0" d="M110.28,22.96c0.05,3.06,2.01,4.33,4.27,4.33c1.62,0,2.6-0.28,3.45-0.64l0.39,1.62
		c-0.8,0.36-2.16,0.77-4.14,0.77c-3.84,0-6.13-2.52-6.13-6.28s2.21-6.72,5.85-6.72c4.07,0,5.15,3.58,5.15,5.87
		c0,0.46-0.05,0.82-0.08,1.06H110.28z M116.93,21.34c0.03-1.44-0.59-3.68-3.14-3.68c-2.29,0-3.3,2.11-3.48,3.68H116.93z"/>
	<path class="st0" d="M124.16,22.03h0.05c0.31-0.44,0.75-0.98,1.11-1.42l3.66-4.3h2.73l-4.81,5.12l5.48,7.34h-2.76l-4.3-5.97
		l-1.16,1.29v4.69h-2.24V10.5h2.24V22.03z"/>
	<path class="st0" d="M136.88,13.33h-5.28v-1.9h12.85v1.9h-5.3v15.45h-2.26V13.33z"/>
	<path class="st0" d="M148.51,12.82c0.03,0.77-0.54,1.39-1.44,1.39c-0.8,0-1.37-0.62-1.37-1.39c0-0.8,0.59-1.42,1.42-1.42
		C147.97,11.4,148.51,12.02,148.51,12.82z M145.99,28.78V16.32h2.27v12.46H145.99z"/>
	<path class="st0" d="M152.01,19.69c0-1.29-0.03-2.34-0.1-3.37h1.98l0.1,2.01h0.08c0.7-1.18,1.85-2.29,3.91-2.29
		c1.7,0,2.99,1.03,3.53,2.5h0.05c0.39-0.7,0.88-1.24,1.39-1.62c0.75-0.57,1.57-0.88,2.75-0.88c1.65,0,4.09,1.08,4.09,5.41v7.34
		h-2.21v-7.05c0-2.39-0.88-3.84-2.7-3.84c-1.29,0-2.29,0.95-2.68,2.06c-0.1,0.31-0.18,0.72-0.18,1.13v7.7h-2.21v-7.47
		c0-1.98-0.88-3.42-2.6-3.42c-1.42,0-2.45,1.13-2.81,2.27c-0.13,0.33-0.18,0.72-0.18,1.11v7.52h-2.21V19.69z"/>
	<path class="st0" d="M174.74,22.96c0.05,3.06,2.01,4.33,4.27,4.33c1.62,0,2.6-0.28,3.45-0.64l0.39,1.62
		c-0.8,0.36-2.16,0.77-4.14,0.77c-3.84,0-6.13-2.52-6.13-6.28s2.21-6.72,5.85-6.72c4.07,0,5.15,3.58,5.15,5.87
		c0,0.46-0.05,0.82-0.08,1.06H174.74z M181.39,21.34c0.03-1.44-0.59-3.68-3.14-3.68c-2.29,0-3.3,2.11-3.48,3.68H181.39z"/>
	<path class="st0" d="M186.07,26.46c0.67,0.44,1.85,0.9,2.99,0.9c1.65,0,2.42-0.82,2.42-1.85c0-1.08-0.64-1.67-2.32-2.29
		c-2.24-0.8-3.3-2.03-3.3-3.53c0-2.01,1.62-3.66,4.3-3.66c1.26,0,2.37,0.36,3.06,0.77l-0.57,1.65c-0.49-0.31-1.39-0.72-2.55-0.72
		c-1.34,0-2.09,0.77-2.09,1.7c0,1.03,0.75,1.49,2.37,2.11c2.16,0.82,3.27,1.91,3.27,3.76c0,2.19-1.7,3.73-4.66,3.73
		c-1.36,0-2.63-0.33-3.5-0.85L186.07,26.46z"/>
</g>
<path class="st1" d="M77.8,27.33l-5.41-4.81l-3.9-0.9l-7.81-5.1l-4.2,0.3l-6.3-5.71l-2.71-3.6h-3.6l-0.9,2.4l-1.21-0.3l-1.5,2.1
	l-1.8,0.3l-1.8-3.31L30.36,0l-1.21,1.2l-1.5,0.3l-5.4,5.11l-1.8,1.2l-2.11,4.8l-5.7,4.21L0,36.06h2.02l9.12-13.54l2.4-2.7l3,3.01
	l0.3,3.6l2.41,3.31l0.9-4.81l2.7-6.01l3.9-3.3l1.81,3.9l1.5,4.2l2.4,2.11l0.3-3.01l-1.8-4.5l-0.01-0.01l-1.2-8.7l0.9-4.21l-1.2-2.7
	l0.6-0.6l5.71,7.81l3,5.1l3.3,2.1l2.11,4.21h2.1l4.5,8.11l3.61-2.71v-4.5l-1.5,0.6l-1.8-1.5l0.6-4.2l-4.21-5.71v-1.8l2.41,3
	l6.3,5.71l0.9,5.11l1.5-0.91l5.11,5.11v-4.81l-2.7-4.2l7.5,4.81l3.31,5.1l2.7,1.5l-2.1-5.1l4.8,3.9l7.51,7.23h2.06L77.8,27.33z"/>
<g>
</g>
<g>
</g>
<g>
</g>
<g>
</g>
<g>
</g>
<g>
</g>
<g>
</g>
<g>
</g>
<g>
</g>
<g>
</g>
<g>
</g>
<g>
</g>
<g>
</g>
<g>
</g>
<g>
</g>
</svg>
